<svg xmlns="http://www.w3.org/2000/svg" viewBox="0 0 1600 900" width="1600" height="900" role="img" aria-label="Broadcast waveform motif">
  <defs>
    <radialGradient id="wash" cx="18%" cy="14%" r="120%">
      <stop offset="0%" stop-color="#E9F3FB"/>
      <stop offset="58%" stop-color="#E9F3FB"/>
      <stop offset="100%" stop-color="#CFE6F2"/>
    </radialGradient>
  </defs>
<rect width="1600" height="900" fill="#E9F3FB"/>
<rect width="1600" height="900" fill="url(#wash)"/>
<path d="M96 0V900M192 0V900M288 0V900M384 0V900M480 0V900M576 0V900M672 0V900M768 0V900M864 0V900M960 0V900M1056 0V900M1152 0V900M1248 0V900M1344 0V900M1440 0V900M1536 0V900M0 96H1600M0 192H1600M0 288H1600M0 384H1600M0 480H1600M0 576H1600M0 672H1600M0 768H1600M0 864H1600" stroke="#6A7B88" stroke-width="1" opacity="0.06" fill="none"/>
<path d="M268.61 628.04 A 40 40 0 0 1 287.84 690.21" fill="none" stroke="#0C7E7B" stroke-width="2.4" opacity="0.22" stroke-linecap="round"/><path d="M283.12 584.39 A 86 86 0 0 1 324.46 718.05" fill="none" stroke="#0C7E7B" stroke-width="1.5" opacity="0.2" stroke-linecap="round"/><path d="M297.62 540.73 A 132 132 0 0 1 361.08 745.88" fill="none" stroke="#0C7E7B" stroke-width="1.5" opacity="0.18" stroke-linecap="round"/><path d="M312.13 497.08 A 178 178 0 0 1 397.7 773.72" fill="none" stroke="#0C7E7B" stroke-width="1.5" opacity="0.15" stroke-linecap="round"/><path d="M326.63 453.43 A 224 224 0 0 1 434.32 801.56" fill="none" stroke="#0C7E7B" stroke-width="1.5" opacity="0.13" stroke-linecap="round"/><path d="M341.14 409.77 A 270 270 0 0 1 470.94 829.4" fill="none" stroke="#0C7E7B" stroke-width="1.5" opacity="0.11" stroke-linecap="round"/><path d="M355.64 366.12 A 316 316 0 0 1 507.56 857.24" fill="none" stroke="#0C7E7B" stroke-width="1.5" opacity="0.09" stroke-linecap="round"/><path d="M370.15 322.47 A 362 362 0 0 1 544.18 885.08" fill="none" stroke="#0C7E7B" stroke-width="1.5" opacity="0.06" stroke-linecap="round"/><circle cx="256" cy="666" r="6" fill="#0C7E7B" opacity="0.55"/>
<path d="M1326.71 237.14 A 36 36 0 0 1 1342.69 288.82" fill="none" stroke="#106A89" stroke-width="2.4" opacity="0.22" stroke-linecap="round"/><path d="M1347.95 189.68 A 88 88 0 0 1 1387.02 316" fill="none" stroke="#106A89" stroke-width="1.5" opacity="0.19" stroke-linecap="round"/><path d="M1369.19 142.21 A 140 140 0 0 1 1431.35 343.18" fill="none" stroke="#106A89" stroke-width="1.5" opacity="0.16" stroke-linecap="round"/><path d="M1390.43 94.75 A 192 192 0 0 1 1475.68 370.36" fill="none" stroke="#106A89" stroke-width="1.5" opacity="0.13" stroke-linecap="round"/><path d="M1411.67 47.29 A 244 244 0 0 1 1520.02 397.54" fill="none" stroke="#106A89" stroke-width="1.5" opacity="0.1" stroke-linecap="round"/><path d="M1432.91 -0.18 A 296 296 0 0 1 1564.35 424.72" fill="none" stroke="#106A89" stroke-width="1.5" opacity="0.07" stroke-linecap="round"/><circle cx="1312" cy="270" r="6" fill="#106A89" opacity="0.55"/>
<path d="M-10 476.4 L-2 477.5 L6 477.98 L14 477.88 L22 477.3 L30 476.42 L38 475.43 L46 474.53 L54 473.85 L62 473.49 L70 473.42 L78 473.57 L86 473.76 L94 473.81 L102 473.54 L110 472.81 L118 471.58 L126 469.9 L134 467.98 L142 466.1 L150 464.65 L158 464 L166 464.53 L174 466.48 L182 469.99 L190 474.99 L198 481.25 L206 488.38 L214 495.86 L222 503.13 L230 509.64 L238 514.93 L246 518.68 L254 520.77 L262 521.24 L270 520.34 L278 518.41 L286 515.87 L294 513.12 L302 510.5 L310 508.18 L318 506.21 L326 504.45 L334 502.64 L342 500.42 L350 497.45 L358 493.45 L366 488.25 L374 481.86 L382 474.5 L390 466.55 L398 458.51 L406 450.92 L414 444.32 L422 439.08 L430 435.42 L438 433.29 L446 432.41 L454 432.27 L462 432.23 L470 431.54 L478 429.53 L486 425.65 L494 419.57 L502 411.23 L510 400.87 L518 388.95 L526 376.17 L534 363.3 L542 351.1 L550 340.24 L558 331.19 L566 324.18 L574 319.18 L582 315.95 L590 314.08 L598 313.1 L606 312.55 L614 312.1 L622 311.58 L630 311.05 L638 310.77 L646 311.15 L654 312.71 L662 315.91 L670 321.14 L678 328.54 L686 338.02 L694 349.21 L702 361.49 L710 374.03 L718 385.95 L726 396.38 L734 404.62 L742 410.19 L750 412.93 L758 413.01 L766 410.92 L774 407.35 L782 403.16 L790 399.18 L798 396.18 L806 394.7 L814 395.01 L822 397.1 L830 400.68 L838 405.25 L846 410.21 L854 414.95 L862 418.96 L870 421.9 L878 423.67 L886 424.39 L894 424.42 L902 424.23 L910 424.33 L918 425.18 L926 427.09 L934 430.15 L942 434.22 L950 438.89 L958 443.6 L966 447.7 L974 450.52 L982 451.53 L990 450.41 L998 447.1 L1006 441.87 L1014 435.22 L1022 427.92 L1030 420.81 L1038 414.78 L1046 410.6 L1054 408.83 L1062 409.76 L1070 413.42 L1078 419.5 L1086 427.51 L1094 436.78 L1102 446.62 L1110 456.4 L1118 465.6 L1126 473.93 L1134 481.32 L1142 487.87 L1150 493.88 L1158 499.69 L1166 505.64 L1174 512.01 L1182 518.9 L1190 526.23 L1198 533.75 L1206 541.03 L1214 547.57 L1222 552.87 L1230 556.47 L1238 558.08 L1246 557.62 L1254 555.22 L1262 551.23 L1270 546.16 L1278 540.64 L1286 535.31 L1294 530.72 L1302 527.31 L1310 525.3 L1318 524.68 L1326 525.26 L1334 526.64 L1342 528.34 L1350 529.84 L1358 530.66 L1366 530.43 L1374 528.93 L1382 526.13 L1390 522.16 L1398 517.28 L1406 511.83 L1414 506.17 L1422 500.62 L1430 495.42 L1438 490.68 L1446 486.39 L1454 482.44 L1462 478.64 L1470 474.76 L1478 470.61 L1486 466.06 L1494 461.08 L1502 455.75 L1510 450.26 L1518 444.89 L1526 439.95 L1534 435.76 L1542 432.58 L1550 430.58 L1558 429.81 L1566 430.23 L1574 431.63 L1582 433.77 L1590 436.33 L1598 438.99 L1606 441.47" fill="none" stroke="#2BB6AD" stroke-width="9" opacity="0.16" stroke-linecap="round"/>
<path d="M-10 476.4 L-2 477.5 L6 477.98 L14 477.88 L22 477.3 L30 476.42 L38 475.43 L46 474.53 L54 473.85 L62 473.49 L70 473.42 L78 473.57 L86 473.76 L94 473.81 L102 473.54 L110 472.81 L118 471.58 L126 469.9 L134 467.98 L142 466.1 L150 464.65 L158 464 L166 464.53 L174 466.48 L182 469.99 L190 474.99 L198 481.25 L206 488.38 L214 495.86 L222 503.13 L230 509.64 L238 514.93 L246 518.68 L254 520.77 L262 521.24 L270 520.34 L278 518.41 L286 515.87 L294 513.12 L302 510.5 L310 508.18 L318 506.21 L326 504.45 L334 502.64 L342 500.42 L350 497.45 L358 493.45 L366 488.25 L374 481.86 L382 474.5 L390 466.55 L398 458.51 L406 450.92 L414 444.32 L422 439.08 L430 435.42 L438 433.29 L446 432.41 L454 432.27 L462 432.23 L470 431.54 L478 429.53 L486 425.65 L494 419.57 L502 411.23 L510 400.87 L518 388.95 L526 376.17 L534 363.3 L542 351.1 L550 340.24 L558 331.19 L566 324.18 L574 319.18 L582 315.95 L590 314.08 L598 313.1 L606 312.55 L614 312.1 L622 311.58 L630 311.05 L638 310.77 L646 311.15 L654 312.71 L662 315.91 L670 321.14 L678 328.54 L686 338.02 L694 349.21 L702 361.49 L710 374.03 L718 385.95 L726 396.38 L734 404.62 L742 410.19 L750 412.93 L758 413.01 L766 410.92 L774 407.35 L782 403.16 L790 399.18 L798 396.18 L806 394.7 L814 395.01 L822 397.1 L830 400.68 L838 405.25 L846 410.21 L854 414.95 L862 418.96 L870 421.9 L878 423.67 L886 424.39 L894 424.42 L902 424.23 L910 424.33 L918 425.18 L926 427.09 L934 430.15 L942 434.22 L950 438.89 L958 443.6 L966 447.7 L974 450.52 L982 451.53 L990 450.41 L998 447.1 L1006 441.87 L1014 435.22 L1022 427.92 L1030 420.81 L1038 414.78 L1046 410.6 L1054 408.83 L1062 409.76 L1070 413.42 L1078 419.5 L1086 427.51 L1094 436.78 L1102 446.62 L1110 456.4 L1118 465.6 L1126 473.93 L1134 481.32 L1142 487.87 L1150 493.88 L1158 499.69 L1166 505.64 L1174 512.01 L1182 518.9 L1190 526.23 L1198 533.75 L1206 541.03 L1214 547.57 L1222 552.87 L1230 556.47 L1238 558.08 L1246 557.62 L1254 555.22 L1262 551.23 L1270 546.16 L1278 540.64 L1286 535.31 L1294 530.72 L1302 527.31 L1310 525.3 L1318 524.68 L1326 525.26 L1334 526.64 L1342 528.34 L1350 529.84 L1358 530.66 L1366 530.43 L1374 528.93 L1382 526.13 L1390 522.16 L1398 517.28 L1406 511.83 L1414 506.17 L1422 500.62 L1430 495.42 L1438 490.68 L1446 486.39 L1454 482.44 L1462 478.64 L1470 474.76 L1478 470.61 L1486 466.06 L1494 461.08 L1502 455.75 L1510 450.26 L1518 444.89 L1526 439.95 L1534 435.76 L1542 432.58 L1550 430.58 L1558 429.81 L1566 430.23 L1574 431.63 L1582 433.77 L1590 436.33 L1598 438.99 L1606 441.47" fill="none" stroke="#2BB6AD" stroke-width="3.2" opacity="0.5" stroke-linecap="round"/>
<circle cx="86" cy="473.76" r="4.5" fill="#E9F3FB" stroke="#0C7E7B" stroke-width="2"/>
<circle cx="294" cy="513.12" r="4.5" fill="#E9F3FB" stroke="#0C7E7B" stroke-width="2"/>
<circle cx="502" cy="411.23" r="4.5" fill="#E9F3FB" stroke="#0C7E7B" stroke-width="2"/>
<circle cx="710" cy="374.03" r="4.5" fill="#E9F3FB" stroke="#0C7E7B" stroke-width="2"/>
<circle cx="918" cy="425.18" r="4.5" fill="#E9F3FB" stroke="#0C7E7B" stroke-width="2"/>
<circle cx="1126" cy="473.93" r="4.5" fill="#E9F3FB" stroke="#0C7E7B" stroke-width="2"/>
<circle cx="1334" cy="526.64" r="4.5" fill="#E9F3FB" stroke="#0C7E7B" stroke-width="2"/>
<circle cx="1542" cy="432.58" r="4.5" fill="#E9F3FB" stroke="#0C7E7B" stroke-width="2"/>

  <g>
    <ellipse cx="380.04" cy="106.68157249016687" rx="9.672729207202792" ry="2.9018187621608376" fill="#000" opacity="0.10"/>
    <rect x="370.37" y="88.87" width="19.35" height="13.19" rx="2.64" fill="#F2555A"/>
    <rect x="373.85" y="92.57" width="12.38" height="5.8" rx="1.32" fill="#E9F3FB" opacity="0.85"/>
  </g>

  <g>
    <ellipse cx="496.71" cy="116.13984805552754" rx="11.465751263592391" ry="3.439725379077718" fill="#000" opacity="0.10"/>
    <rect x="485.24" y="95.03" width="22.93" height="15.64" rx="3.13" fill="#F2555A"/>
    <rect x="489.37" y="99.41" width="14.68" height="6.88" rx="1.56" fill="#E9F3FB" opacity="0.85"/>
  </g>

  <g>
    <ellipse cx="534.47" cy="322.3700140484516" rx="11.396874865330755" ry="3.419062459599227" fill="#000" opacity="0.10"/>
    <rect x="523.07" y="301.39" width="22.79" height="15.54" rx="3.11" fill="#F2555A"/>
    <rect x="527.18" y="305.74" width="14.59" height="6.84" rx="1.55" fill="#E9F3FB" opacity="0.85"/>
  </g>

  <g>
    <ellipse cx="469.83" cy="93.53613913540728" rx="8.158237685449421" ry="2.4474713056348265" fill="#000" opacity="0.10"/>
    <rect x="461.67" y="78.52" width="16.32" height="11.12" rx="2.22" fill="#F2555A"/>
    <rect x="464.61" y="81.63" width="10.44" height="4.89" rx="1.11" fill="#E9F3FB" opacity="0.85"/>
  </g>

  <g>
    <ellipse cx="293.5" cy="183.04585345310159" rx="8.080344155617057" ry="2.424103246685117" fill="#000" opacity="0.10"/>
    <rect x="285.42" y="168.17" width="16.16" height="11.02" rx="2.2" fill="#F2555A"/>
    <rect x="288.33" y="171.26" width="10.34" height="4.85" rx="1.1" fill="#E9F3FB" opacity="0.85"/>
  </g>

  <g>
    <ellipse cx="164.28" cy="95.12154894785024" rx="8.231924582459031" ry="2.4695773747377094" fill="#000" opacity="0.10"/>
    <rect x="156.05" y="79.97" width="16.46" height="11.23" rx="2.25" fill="#106A89"/>
    <rect x="159.01" y="83.11" width="10.54" height="4.94" rx="1.12" fill="#E9F3FB" opacity="0.85"/>
  </g>

  <g>
    <ellipse cx="174.4" cy="147.86863260810728" rx="9.670192838367074" ry="2.901057851510122" fill="#000" opacity="0.10"/>
    <rect x="164.73" y="130.07" width="19.34" height="13.19" rx="2.64" fill="#F2555A"/>
    <rect x="168.21" y="133.76" width="12.38" height="5.8" rx="1.32" fill="#E9F3FB" opacity="0.85"/>
  </g>
</svg>